<svg xmlns="http://www.w3.org/2000/svg" viewBox="0 0 512 512"><defs><linearGradient id="a" x1="80" y1="70" x2="430" y2="450" gradientUnits="userSpaceOnUse"><stop stop-color="#9effff"/><stop offset=".55" stop-color="#3bd4e8"/><stop offset="1" stop-color="#27607e"/></linearGradient><filter id="b" x="-30%" y="-30%" width="160%" height="160%"><feDropShadow dx="0" dy="0" stdDeviation="8" flood-color="#5fefff" flood-opacity=".55"/></filter></defs><rect width="512" height="512" rx="86" fill="#0b1420"/><rect x="10" y="10" width="492" height="492" rx="78" fill="none" stroke="#233348" stroke-width="8"/><path d="M58 235 246 84a37 37 0 0 1 46 0l162 130c11 9 17 22 17 36v1c0 10-8 18-18 18h-28v156c0 22-18 40-40 40H127c-22 0-40-18-40-40V269H59c-10 0-18-8-18-18v-2c0-5 6-11 17-14Z" fill="#101d2b" stroke="url(#a)" stroke-width="18" stroke-linejoin="round" filter="url(#b)"/><path d="M102 285h55m-55 36h75m-75 37h58m40-118v97l42 38" fill="none" stroke="#3fd8ee" stroke-width="7" stroke-linecap="round" opacity=".62"/><circle cx="162" cy="285" r="8" fill="#53e9ff"/><circle cx="182" cy="321" r="9" fill="#53e9ff"/><circle cx="166" cy="358" r="8" fill="#53e9ff"/><circle cx="200" cy="239" r="8" fill="#53e9ff"/><path d="M347 313h68m-68 35h68m-68 35h68" stroke="#54e4f6" stroke-width="8" stroke-linecap="round" opacity=".78"/><circle cx="374" cy="313" r="14" fill="#66f2ff"/><circle cx="365" cy="348" r="14" fill="#66f2ff"/><circle cx="392" cy="383" r="14" fill="#66f2ff"/><path d="M185 448c16-71 34-116 75-116s63 44 80 116" fill="#07111d"/><ellipse cx="264" cy="270" rx="76" ry="88" fill="#eea077"/><path d="M181 253c5-76 58-119 122-101 50 14 76 54 66 118-30-28-63-40-103-42-33-2-61 5-85 25Z" fill="#070a10"/><path d="M177 255c38-37 97-52 162-17-25-46-74-75-124-55-26 10-42 33-38 72Z" fill="#111824" opacity=".92"/><path d="M216 293c12 10 25 10 38 0m31 0c13 10 27 10 39 0" stroke="#26140e" stroke-width="8" stroke-linecap="round" fill="none"/><path d="M245 329c12 8 27 8 40 0" stroke="#a95746" stroke-width="8" stroke-linecap="round" fill="none"/><path d="M213 448h102c-5-45-17-70-51-70s-46 25-51 70Z" fill="#131a26"/><path d="M225 443v-48l39-31 39 31v48" fill="#102231" stroke="url(#a)" stroke-width="10" stroke-linejoin="round"/><path d="M250 416h28m-14-14v28" stroke="#8cffff" stroke-width="8" stroke-linecap="round"/></svg>
